<svg xmlns="http://www.w3.org/2000/svg" xmlns:xlink="http://www.w3.org/1999/xlink" viewBox="0 0 500 500"><defs><clipPath id="freepik--clip-path--inject-3"><path d="M171.18,411.07,71.28,436.8c-7,1.47-12.73-3.82-12.73-11.84V104.86c0-8,5.75-13.31,12.73-11.84l99.9,23c5.12,1.08,9.22,7.4,9.22,14.12V397C180.4,403.68,176.3,410,171.18,411.07Z" style="fill:#6366F1;stroke:#263238;stroke-linecap:round;stroke-linejoin:round"></path></clipPath><clipPath id="freepik--clip-path-2--inject-3"><path d="M356.48,220.9s-22.15,4.46-27.39,7.57-7.77,15-12.24,23.12S303.64,264,299.94,269.86s-3.11,16.9,2.72,19.43,7.39,2.52,11.86-1,12-11.27,12-11.27,3.5,6,4.67,7.38l1.16,1.36a63.85,63.85,0,0,0-8.55,19.82c-3.11,12.24-9.32,27.39-4.08,49.35s15.35,41,18.85,56.54a212.72,212.72,0,0,1,4.86,35.94c.58,9.14-1.17,18.57.38,20.91s10.64,5.76,14.73,3.23,3.34-3.62,4.12-6.73,5.44-31,5.44-31S372,444.17,374.71,450s5.44,9.32,9.91,8.35,6.41-4.08,6.41-7.19,2.18-27.81-2.68-40.63-9.91-18.27-10.88-23.12a18,18,0,0,1,4.27-14.58c3.31-3.49,16.91-21,18.46-35s-2.53-26.42-5.25-33.81-8.35-10.49-4.85-21.95S399.81,253,401.17,243s-1.55-13-8.94-16.51S370.08,218,356.48,220.9Z" style="fill:#6366F1;stroke:#263238;stroke-miterlimit:10"></path></clipPath><clipPath id="freepik--clip-path-3--inject-3"><path d="M401.17,243c1.36-9.9-1.55-13-8.94-16.51s-22.15-8.55-35.75-5.63c0,0-22.15,4.46-27.39,7.57s-7.77,15-12.24,23.12S303.64,264,299.94,269.86s-3.11,16.9,2.72,19.43,7.39,2.52,11.86-1,12-11.27,12-11.27,3.5,6,4.67,7.38l1.16,1.36a63.85,63.85,0,0,0-8.55,19.82c-.51,2-1.1,4.08-1.71,6.25,7.23,3.2,26.66,10.54,46.21,7.15,14.83-2.56,23.68-6.82,28.4-9.8-.61-1.91-1.23-3.64-1.79-5.16-2.72-7.38-8.35-10.49-4.85-21.95S399.81,253,401.17,243Z" style="fill:#949494;stroke:#263238;stroke-miterlimit:10"></path></clipPath><clipPath id="freepik--clip-path-4--inject-3"><path d="M355.71,160.27s-9.91.59-11.66,8.94,8,18.85,12.43,25.26-.39,12.63-4.27,20.21-4.28,19.62,8.35,25.45,26.62,2.33,33.23-7.58,4.86-19.82,1.16-26.81-6.21-7.58-4.66-13.8,1-13-2.91-21.37S368.34,157.36,355.71,160.27Z" style="fill:#263238;stroke:#263238;stroke-miterlimit:10"></path></clipPath></defs><g id="freepik--background-simple--inject-3"><path d="M24.46,192.46S5.73,272.53,57.91,342.28,201.07,439.15,274.2,463.05s141.61-3.69,167.3-65.15-26.2-94.55-37.64-174.81S401.55,119.71,348.17,58.6s-162.91-59.66-237,3.08S24.46,192.46,24.46,192.46Z" style="fill:#6366F1"></path><path d="M24.46,192.46S5.73,272.53,57.91,342.28,201.07,439.15,274.2,463.05s141.61-3.69,167.3-65.15-26.2-94.55-37.64-174.81S401.55,119.71,348.17,58.6s-162.91-59.66-237,3.08S24.46,192.46,24.46,192.46Z" style="fill:#fff;opacity:0.7000000000000001"></path></g><g id="freepik--Device--inject-3"><path d="M166,411.07,69.58,437.61c-7,1.47-16.24-4.63-16.24-12.65V104.86c0-8,5.42-14,15.71-11.83L166,116c5.12,1.08,9.22,7.4,9.22,14.12V397C175.19,403.68,171.09,410,166,411.07Z" style="fill:#263238;stroke:#263238;stroke-linecap:round;stroke-linejoin:round"></path><path d="M171.18,411.07,71.28,436.8c-7,1.47-12.73-3.82-12.73-11.84V104.86c0-8,5.75-13.31,12.73-11.84l99.9,23c5.12,1.08,9.22,7.4,9.22,14.12V397C180.4,403.68,176.3,410,171.18,411.07Z" style="fill:#6366F1"></path><g style="clip-path:url(#freepik--clip-path--inject-3)"><path d="M72,93.17c-7.36-1.55-13.43,4-13.43,12.5V424.15c0,4.72,1.9,8.56,4.87,10.75l82.15-326.22Z" style="fill:#fff;opacity:0.2"></path><path d="M135.25,412.21c0-3-2-5.1-4.45-4.63s-4.51,3.35-4.51,6.41,2,5.13,4.51,4.62S135.25,415.24,135.25,412.21Z" style="fill:none;stroke:#263238;stroke-linecap:round;stroke-linejoin:round"></path></g><path d="M171.18,411.07,71.28,436.8c-7,1.47-12.73-3.82-12.73-11.84V104.86c0-8,5.75-13.31,12.73-11.84l99.9,23c5.12,1.08,9.22,7.4,9.22,14.12V397C180.4,403.68,176.3,410,171.18,411.07Z" style="fill:none;stroke:#263238;stroke-linecap:round;stroke-linejoin:round"></path><polygon points="175.41 392.77 65.54 417.58 65.54 115.19 175.41 136.85 175.41 392.77" style="fill:#fff;stroke:#263238;stroke-linecap:round;stroke-linejoin:round"></polygon><path d="M126.93,332.12c-21.34,29.09-32.32,59.28-37.85,80.14l75.73-17.09a155.8,155.8,0,0,1,10.6-42.54V281.3C159.7,294.38,142.08,311.46,126.93,332.12Z" style="fill:#263238"></path><path d="M65.54,115.19V298.58c15.43-23.61,38.18-47.93,68.29-83,24.08-28,35.87-48.28,41.58-62V136.85Z" style="fill:#263238"></path><polygon points="171.89 145.13 163.16 143.65 163.16 137.32 171.89 138.88 171.89 145.13" style="fill:#fff"></polygon><polygon points="169.21 143.59 163.93 142.81 163.93 138.53 169.21 139.35 169.21 143.59" style="fill:#263238"></polygon><polygon points="173.08 143.59 171.87 143.38 171.87 140.62 173.08 140.84 173.08 143.59" style="fill:#fff"></polygon><polygon points="70.85 121.5 68.72 121.13 68.72 125.3 70.85 125.66 70.85 121.5" style="fill:#fff"></polygon><polygon points="74.18 120.63 72.07 120.26 72.07 125.87 74.18 126.23 74.18 120.63" style="fill:#fff"></polygon><polygon points="77.49 119.5 75.39 119.13 75.39 126.44 77.49 126.79 77.49 119.5" style="fill:#fff"></polygon></g><g id="freepik--Character--inject-3"><ellipse cx="371.45" cy="472.08" rx="55.11" ry="14.66" style="opacity:0.30000000000000004"></ellipse><path d="M341.07,203.39s-6.06,2.88-6.66,4.39-1.82,4.69-1.82,4.69-7.11.46-8.93,1.37-3,2.26-2.87,5.75,2.57,11.95,1.51,13.61a169.61,169.61,0,0,1-12.86,18.46c-7.41,9.23-9.38,10.9-10.74,17.86s-1.67,10.74-.15,12.56,5.14.15,10.59-4.24,8-1.51,14.22-13.77,7-25.72,9.53-28.29,7.72-6.51,8.63-9.54,2.12-8.62,4.24-10.44,2.87-4.39.75-4.08a5.83,5.83,0,0,0-4.54,3,21.52,21.52,0,0,1-3.63,4.09s-.3-5.3-.15-6.36,5.3-6.5,6.05-6.35,3.48.6,2.88-.91S343.33,202.34,341.07,203.39Z" style="fill:#fff;stroke:#263238;stroke-miterlimit:10"></path><path d="M400.78,238.38s-.77,30.7-2.52,38.67-2.72,9.32-5.64,10.49a22.14,22.14,0,0,1-7.57,1.16c-1,0,1.16-12.24,5.44-24.87S400.78,238.38,400.78,238.38Z" style="fill:#636363;stroke:#263238;stroke-miterlimit:10"></path><path d="M314.1,294.34a7.5,7.5,0,0,0,4.86.33c2.27-.81,6.32-4.29,8.34-6s7.94-.16,8.18-.08,3.49-1.29.25-7.93-8.67-5.59-12.48-3.08-9.47,9.23-11.09,10.45A15.36,15.36,0,0,1,308,290S312.32,293.13,314.1,294.34Z" style="fill:#fff;stroke:#263238;stroke-miterlimit:10"></path><path d="M343.77,464.47s-9.07,2-13.64,1.52-7.12.58-7.7,2.83.73,4.94,8.86,8.28,19.59,6.46,23.15,6.09,5.15-.72,6.09-5.22,1-12.56,1-12.56S348.92,467.59,343.77,464.47Z" style="fill:#263238;stroke:#263238;stroke-miterlimit:10"></path><path d="M360.51,478.08a19.73,19.73,0,0,1-4.33,1.92c-4,1.23-8.2-.07-20.32-3.63-9.48-2.78-12.56-6.09-13.46-7.4-.49,2.22.93,4.86,8.89,8.13,8.12,3.34,19.59,6.46,23.15,6.09S359.56,482.47,360.51,478.08Z" style="fill:#fff;stroke:#263238;stroke-miterlimit:10"></path><path d="M376.23,451.78s-4.79-.29-5.88,1.09.94,5.59,4.35,8.35,5.52,3.33,6.68,6.17,6.9,3,9.29,1.59,2-5,1.45-8.56-1.52-8.06-1.52-8.06-6.32,2.69-9,1.31A22.42,22.42,0,0,0,376.23,451.78Z" style="fill:#263238;stroke:#263238;stroke-miterlimit:10"></path><path d="M382.54,465.79c-1.74-3.05-4-3.49-7.62-6.46a13.13,13.13,0,0,1-4.06-6.87,1.64,1.64,0,0,0-.51.41c-1.09,1.38.94,5.59,4.35,8.35s5.52,3.33,6.68,6.17,6.9,3,9.29,1.59c1.69-1,2-3.07,1.84-5.46a22.36,22.36,0,0,1-1.48,2.2C389.22,468.11,384.28,468.84,382.54,465.79Z" style="fill:#fff;stroke:#263238;stroke-miterlimit:10"></path><path d="M356.48,220.9s-22.15,4.46-27.39,7.57-7.77,15-12.24,23.12S303.64,264,299.94,269.86s-3.11,16.9,2.72,19.43,7.39,2.52,11.86-1,12-11.27,12-11.27,3.5,6,4.67,7.38l1.16,1.36a63.85,63.85,0,0,0-8.55,19.82c-3.11,12.24-9.32,27.39-4.08,49.35s15.35,41,18.85,56.54a212.72,212.72,0,0,1,4.86,35.94c.58,9.14-1.17,18.57.38,20.91s10.64,5.76,14.73,3.23,3.34-3.62,4.12-6.73,5.44-31,5.44-31S372,444.17,374.71,450s5.44,9.32,9.91,8.35,6.41-4.08,6.41-7.19,2.18-27.81-2.68-40.63-9.91-18.27-10.88-23.12a18,18,0,0,1,4.27-14.58c3.31-3.49,16.91-21,18.46-35s-2.53-26.42-5.25-33.81-8.35-10.49-4.85-21.95S399.81,253,401.17,243s-1.55-13-8.94-16.51S370.08,218,356.48,220.9Z" style="fill:#6366F1"></path><g style="clip-path:url(#freepik--clip-path-2--inject-3)"><path d="M392.23,226.53c-7.38-3.5-22.15-8.55-35.75-5.63l-.79.16-3.43,4.68s-20.68,5.48-20.68,14,4.86,11.56.61,16.42c-3.65,4.17-25.08,20.79-32,31.22a6.66,6.66,0,0,0,2.44,1.91c5.83,2.52,7.39,2.52,11.86-1s12-11.27,12-11.27,3.5,6,4.67,7.38l1.16,1.36s-.74,1-1.82,2.93c1.11,1.63,6.09,9.6,2.83,16.12-3.65,7.3-6.69,42,.61,68.75s17,50.5,15.82,65.71c-.8,10.05-1.61,24.47-3.12,31.13,3.46,1.71,8.94,3,11.87,1.15,4.08-2.52,3.34-3.62,4.12-6.73s5.44-31,5.44-31l.23.42c1.24-3.83,3.36-11.1,3.36-16.25,0,0,9.88,17.46,9.27,30.23a66.42,66.42,0,0,0,.22,9.9,5.86,5.86,0,0,0,3.4.21c4.47-1,6.41-4.08,6.41-7.19s2.18-27.81-2.68-40.63-9.91-18.27-10.88-23.12a18,18,0,0,1,4.27-14.58c3.31-3.49,16.91-21,18.46-35s-2.53-26.42-5.25-33.81-8.35-10.49-4.85-21.95S399.81,253,401.17,243,399.62,230,392.23,226.53Z" style="opacity:0.30000000000000004"></path></g><path d="M356.48,220.9s-22.15,4.46-27.39,7.57-7.77,15-12.24,23.12S303.64,264,299.94,269.86s-3.11,16.9,2.72,19.43,7.39,2.52,11.86-1,12-11.27,12-11.27,3.5,6,4.67,7.38l1.16,1.36a63.85,63.85,0,0,0-8.55,19.82c-3.11,12.24-9.32,27.39-4.08,49.35s15.35,41,18.85,56.54a212.72,212.72,0,0,1,4.86,35.94c.58,9.14-1.17,18.57.38,20.91s10.64,5.76,14.73,3.23,3.34-3.62,4.12-6.73,5.44-31,5.44-31S372,444.17,374.71,450s5.44,9.32,9.91,8.35,6.41-4.08,6.41-7.19,2.18-27.81-2.68-40.63-9.91-18.27-10.88-23.12a18,18,0,0,1,4.27-14.58c3.31-3.49,16.91-21,18.46-35s-2.53-26.42-5.25-33.81-8.35-10.49-4.85-21.95S399.81,253,401.17,243s-1.55-13-8.94-16.51S370.08,218,356.48,220.9Z" style="fill:none;stroke:#263238;stroke-miterlimit:10"></path><path d="M380.93,346.23l-9,3.12s-7.63,18.78-7.82,28.55,8.8,22.49,7.62,36.57-3.6,19.37-3.6,19.37" style="fill:none;stroke:#263238;stroke-miterlimit:10"></path><path d="M349.32,466.92a9,9,0,0,1-1,2.86" style="fill:none;stroke:#263238;stroke-miterlimit:10"></path><path d="M330.37,359.34c.35,2.29.78,4.55,1.3,6.76,5.12,21.75,10.24,36.67,14.93,54.58,3,11.36,3.89,30.88,3.51,39.27" style="fill:none;stroke:#263238;stroke-miterlimit:10"></path><path d="M330,317.06a184.55,184.55,0,0,0-.53,34.55" style="fill:none;stroke:#263238;stroke-miterlimit:10"></path><path d="M401.17,243c1.36-9.9-1.55-13-8.94-16.51s-22.15-8.55-35.75-5.63c0,0-22.15,4.46-27.39,7.57s-7.77,15-12.24,23.12S303.64,264,299.94,269.86s-3.11,16.9,2.72,19.43,7.39,2.52,11.86-1,12-11.27,12-11.27,3.5,6,4.67,7.38l1.16,1.36a63.85,63.85,0,0,0-8.55,19.82c-.51,2-1.1,4.08-1.71,6.25,7.23,3.2,26.66,10.54,46.21,7.15,14.83-2.56,23.68-6.82,28.4-9.8-.61-1.91-1.23-3.64-1.79-5.16-2.72-7.38-8.35-10.49-4.85-21.95S399.81,253,401.17,243Z" style="fill:#949494"></path><g style="clip-path:url(#freepik--clip-path-3--inject-3)"><path d="M392.23,226.53c-7.38-3.5-22.15-8.55-35.75-5.63l-.79.16-3.43,4.68s-20.68,5.48-20.68,14,4.86,11.56.61,16.42c-3.65,4.17-25.08,20.79-32,31.22a6.66,6.66,0,0,0,2.44,1.91c5.83,2.52,7.39,2.52,11.86-1s12-11.27,12-11.27,3.5,6,4.67,7.38l1.16,1.36s-.74,1-1.82,2.93c1.11,1.63,6.09,9.6,2.83,16.12-3.65,7.3-6.69,42,.61,68.75s17,50.5,15.82,65.71c-.8,10.05-1.61,17.17-3.12,23.83,3.46,1.71,8.94,3,11.87,1.15,4.08-2.53,3.34-3.62,4.12-6.73s5.44-23.71,5.44-23.71l.23.42c1.24-3.83,3.36-11.1,3.36-16.25,0,0,14,21.9,13.39,34.68a66.48,66.48,0,0,0,.22,9.9,5.86,5.86,0,0,0,3.4.2c4.47-1,6.41-4.08,6.41-7.19s-1.94-32.25-6.8-45.07-9.91-18.27-10.88-23.12a18,18,0,0,1,4.27-14.58c3.31-3.49,16.91-21,18.46-35s-2.53-26.42-5.25-33.81-8.35-10.49-4.85-21.95S399.81,253,401.17,243,399.62,230,392.23,226.53Z" style="opacity:0.30000000000000004"></path><polyline points="342.11 261.31 326.56 277.05 342.88 266.36" style="fill:none;stroke:#263238;stroke-miterlimit:10"></polyline><path d="M379.6,256.26s-7,19.23-14.57,26.81" style="fill:none;stroke:#263238;stroke-miterlimit:10"></path><path d="M381.16,262.28S370.67,281.9,365,288.51" style="fill:none;stroke:#263238;stroke-miterlimit:10"></path></g><path d="M401.17,243c1.36-9.9-1.55-13-8.94-16.51s-22.15-8.55-35.75-5.63c0,0-22.15,4.46-27.39,7.57s-7.77,15-12.24,23.12S303.64,264,299.94,269.86s-3.11,16.9,2.72,19.43,7.39,2.52,11.86-1,12-11.27,12-11.27,3.5,6,4.67,7.38l1.16,1.36a63.85,63.85,0,0,0-8.55,19.82c-.51,2-1.1,4.08-1.71,6.25,7.23,3.2,26.66,10.54,46.21,7.15,14.83-2.56,23.68-6.82,28.4-9.8-.61-1.91-1.23-3.64-1.79-5.16-2.72-7.38-8.35-10.49-4.85-21.95S399.81,253,401.17,243Z" style="fill:none;stroke:#263238;stroke-miterlimit:10"></path><path d="M300.9,288s-1.78-.81-1.62.64,2.83,3.41,4.05,4.3a3.91,3.91,0,0,0,2.92.56C306.81,293.45,300.9,288,300.9,288Z" style="fill:#fff;stroke:#263238;stroke-miterlimit:10"></path><path d="M303.73,288.59s-2.67-2.67-3.07-1.7,1.29,3.16,3.32,5.27a5.43,5.43,0,0,0,5.42,1.78c1-.41-1.62-2.92-2.67-4A6.47,6.47,0,0,0,303.73,288.59Z" style="fill:#fff;stroke:#263238;stroke-miterlimit:10"></path><path d="M306.49,288.11s-3.65-4.05-4.05-3.08,1,3.48,2.91,5.67,3.41,3.4,4.62,3.48a8.29,8.29,0,0,0,3.16-.89Z" style="fill:#fff;stroke:#263238;stroke-miterlimit:10"></path><path d="M316.65,294.53a12.61,12.61,0,0,1-5-.77c-2.33-1-5.44-5.25-6.22-7.19s1.17-4.08,2.92-1.36,6.8,6.21,6.8,6.21" style="fill:#fff;stroke:#263238;stroke-miterlimit:10"></path><path d="M347.16,176.6a45.48,45.48,0,0,1-2.14,6.21c-1.17,2.53-5,.78-6,4.28s.77,5,.77,5.63-.38,12.44,2.14,16.32,10.49,1.75,10.49,1.75-.19,10.69.2,12.05,3.3,2.91,9.52,2.91,9.91-4.66,9.91-10.3-3.69-12.43-1.56-21.56,5.64-14.57-.39-20.21S349.88,170.57,347.16,176.6Z" style="fill:#fff;stroke:#263238;stroke-miterlimit:10"></path><path d="M346.55,185.37c-.15,1-.56,1.8-.92,1.75s-.54-.92-.39-1.94.56-1.81.92-1.75S346.7,184.35,346.55,185.37Z" style="fill:#263238"></path><path d="M340.88,196.81s1.77,1.77,4.13-.39" style="fill:none;stroke:#263238;stroke-miterlimit:10"></path><path d="M355.71,160.27s-9.91.59-11.66,8.94,8,18.85,12.43,25.26-.39,12.63-4.27,20.21-4.28,19.62,8.35,25.45,26.62,2.33,33.23-7.58,4.86-19.82,1.16-26.81-6.21-7.58-4.66-13.8,1-13-2.91-21.37S368.34,157.36,355.71,160.27Z" style="fill:#263238"></path><g style="clip-path:url(#freepik--clip-path-4--inject-3)"><path d="M355.71,160.27s-10.14,10.71-1.62,22.27,20.69,18.87,20.08,34.69-16.43,12.77-9.74,31.63" style="fill:none;stroke:#787878;stroke-miterlimit:10"></path><path d="M369.91,156.38s-3,18.86,3.65,26.77,18.25,25.56,14.6,37.73-9.13,18.86-1.82,21.29" style="fill:none;stroke:#787878;stroke-miterlimit:10"></path><path d="M386.34,166.12a20.42,20.42,0,0,0-.61,18.86c4.86,10.34,12.77,26.16,10.95,38.33s-7.3,18.86-7.3,18.86" style="fill:none;stroke:#787878;stroke-miterlimit:10"></path></g><path d="M355.71,160.27s-9.91.59-11.66,8.94,8,18.85,12.43,25.26-.39,12.63-4.27,20.21-4.28,19.62,8.35,25.45,26.62,2.33,33.23-7.58,4.86-19.82,1.16-26.81-6.21-7.58-4.66-13.8,1-13-2.91-21.37S368.34,157.36,355.71,160.27Z" style="fill:none;stroke:#263238;stroke-miterlimit:10"></path></g><g id="freepik--Icons--inject-3"><line x1="152.49" y1="78.01" x2="145.21" y2="104.06" style="fill:none;stroke:#263238;stroke-miterlimit:10"></line><line x1="213.88" y1="129.75" x2="184.94" y2="143.78" style="fill:none;stroke:#263238;stroke-miterlimit:10"></line><line x1="223.52" y1="205.17" x2="187.57" y2="209.55" style="fill:none;stroke:#263238;stroke-miterlimit:10"></line><line x1="185.81" y1="294.62" x2="202.48" y2="301.63" style="fill:none;stroke:#263238;stroke-miterlimit:10"></line><path d="M160.08,43.52v-2a2.29,2.29,0,0,0-2.29-2.29H142.32A2.3,2.3,0,0,0,140,41.5v2h-3.15a2,2,0,0,0-2,2V68.44a2,2,0,0,0,2,2H173a2,2,0,0,0,2-2V45.53a2,2,0,0,0-2-2Z" style="fill:#263238"></path><path d="M173,71.08H136.88a2.64,2.64,0,0,1-2.64-2.64V45.53a2.65,2.65,0,0,1,2.64-2.65h2.51V41.5a2.94,2.94,0,0,1,2.94-2.93h15.46a2.93,2.93,0,0,1,2.93,2.93v1.38H173a2.65,2.65,0,0,1,2.64,2.65V68.44A2.64,2.64,0,0,1,173,71.08ZM136.88,44.16a1.36,1.36,0,0,0-1.36,1.37V68.44a1.36,1.36,0,0,0,1.36,1.36H173a1.36,1.36,0,0,0,1.36-1.36V45.53A1.36,1.36,0,0,0,173,44.16H159.44V41.5a1.65,1.65,0,0,0-1.65-1.65H142.33a1.65,1.65,0,0,0-1.66,1.65v2.66Z" style="fill:#263238"></path><circle cx="153.21" cy="56.12" r="10.31" transform="translate(-8.78 36.53) rotate(-13.22)" style="fill:#263238"></circle><path d="M153.21,67.07a10.95,10.95,0,1,1,10.95-10.95A11,11,0,0,1,153.21,67.07Zm0-20.62a9.67,9.67,0,1,0,9.67,9.67A9.68,9.68,0,0,0,153.21,46.45Z" style="fill:#fff"></path><circle cx="168.1" cy="48.39" r="3.15" style="fill:#fff"></circle><line x1="182.91" y1="44.34" x2="210.05" y2="44.34" style="fill:none;stroke:#263238;stroke-miterlimit:10"></line><line x1="182.91" y1="49.85" x2="210.05" y2="49.85" style="fill:none;stroke:#263238;stroke-miterlimit:10"></line><line x1="182.91" y1="55.36" x2="210.05" y2="55.36" style="fill:none;stroke:#263238;stroke-miterlimit:10"></line><line x1="182.91" y1="60.86" x2="210.05" y2="60.86" style="fill:none;stroke:#263238;stroke-miterlimit:10"></line><path d="M236,91.38H233.3v-4.2h-9v4.2h-2.64A2.68,2.68,0,0,0,219,94.06v32.23a2.67,2.67,0,0,0,2.68,2.67H236a2.67,2.67,0,0,0,2.68-2.67V94.06A2.68,2.68,0,0,0,236,91.38Z" style="fill:#263238"></path><path d="M236,129.6H221.66a3.32,3.32,0,0,1-3.32-3.31V94.06a3.32,3.32,0,0,1,3.32-3.32h2v-4.2H234v4.2h2a3.32,3.32,0,0,1,3.32,3.32v32.23A3.32,3.32,0,0,1,236,129.6ZM221.66,92a2,2,0,0,0-2,2v32.23a2,2,0,0,0,2,2H236a2,2,0,0,0,2-2V94.06a2,2,0,0,0-2-2h-3.29V87.82h-7.72V92Z" style="fill:#263238"></path><rect x="221.11" y="95.45" width="15.39" height="29.45" rx="2.09" style="fill:#263238"></rect><path d="M233.83,125.54H223.78a3.32,3.32,0,0,1-3.31-3.32V98.12a3.31,3.31,0,0,1,3.31-3.31h10.05a3.32,3.32,0,0,1,3.31,3.31v24.1A3.32,3.32,0,0,1,233.83,125.54ZM223.78,96.09a2,2,0,0,0-2,2v24.1a2,2,0,0,0,2,2h10.05a2,2,0,0,0,2-2V98.12a2,2,0,0,0-2-2Z" style="fill:#fff"></path><rect x="220.89" y="100.98" width="15.76" height="1.28" style="fill:#fff"></rect><rect x="220.89" y="106.44" width="15.76" height="1.28" style="fill:#fff"></rect><rect x="220.89" y="111.89" width="15.76" height="1.28" style="fill:#fff"></rect><rect x="220.89" y="117.35" width="15.76" height="1.28" style="fill:#fff"></rect><polygon points="225.44 98.29 223.62 107.67 227.86 107.67 225.74 115.49 228.77 115.49 226.95 122.53 234.53 111.97 230.89 111.97 234.22 104.94 228.77 104.94 229.98 98.29 225.44 98.29" style="fill:#fff"></polygon><line x1="249.79" y1="102.17" x2="276.93" y2="102.17" style="fill:none;stroke:#263238;stroke-miterlimit:10"></line><line x1="249.79" y1="107.68" x2="276.93" y2="107.68" style="fill:none;stroke:#263238;stroke-miterlimit:10"></line><line x1="249.79" y1="113.19" x2="276.93" y2="113.19" style="fill:none;stroke:#263238;stroke-miterlimit:10"></line><line x1="249.79" y1="118.69" x2="276.93" y2="118.69" style="fill:none;stroke:#263238;stroke-miterlimit:10"></line><path d="M253,184.28l.33-.58c-.38-.45-.77-.88-1.18-1.28-7-3.19-13.94-1-16.39,0-.26.25-.5.52-.74.79l.38.76C235.49,183.94,244.62,179.5,253,184.28Z" style="fill:#263238"></path><path d="M257.1,190.66a23.19,23.19,0,0,0-1-2.61,18.42,18.42,0,0,0-11.24-4c-5.33,0-10.56,2.75-13.14,4.35-.3.66-.57,1.36-.82,2.07.86-.61,7.48-5.14,14-5.14A17.49,17.49,0,0,1,257.1,190.66Z" style="fill:#263238"></path><path d="M232.55,208.24c0-.07-3.25-7,.91-13.5a13.68,13.68,0,0,1,9.29-6.3c3.58-.65,6.65.13,8,1.13a27,27,0,0,1,5.08,5.43,23.68,23.68,0,0,0,2.66,3.09c0-.68-.09-1.36-.16-2-.48-.55-1-1.18-1.48-1.86a28,28,0,0,0-5.33-5.66c-1.6-1.21-5-2.09-9-1.37a14.91,14.91,0,0,0-10.14,6.87c-4.54,7.12-1.13,14.43-1,14.74Z" style="fill:#263238"></path><path d="M257,199.64a20.81,20.81,0,0,1-1.46-2.19c-1.86-3-4.18-6.83-11-6.83a9.39,9.39,0,0,0-7.5,3.17c-2.59,3-3,7.35-2.55,10.43a7.61,7.61,0,0,1-2.56,6.95c.19.39.4.77.6,1.14a8.94,8.94,0,0,0,3.23-8.28c-.42-2.8-.05-6.74,2.25-9.41a8.18,8.18,0,0,1,6.53-2.72c6.07,0,8,3.16,9.87,6.22a20.79,20.79,0,0,0,1.55,2.32,8.07,8.07,0,0,0,2.4,2.1c0-.48.09-.95.12-1.44A7.54,7.54,0,0,1,257,199.64Z" style="fill:#263238"></path><path d="M252.23,199.74a18.21,18.21,0,0,0-.89-1.62c-1.22-1.82-4.06-6.09-9.88-3.69-4.58,1.89-4.14,6.69-3.75,10.92.11,1.23.21,2.39.21,3.48,0,3-2.16,5.08-3.63,6.13q.41.51.84,1c1.69-1.22,4.08-3.57,4.08-7.12,0-1.15-.12-2.39-.23-3.6-.38-4.16-.74-8.09,3-9.62,4.85-2,7,1.27,8.32,3.22a16.09,16.09,0,0,1,.82,1.49,17.81,17.81,0,0,0,6.19,7.54c.14-.43.25-.87.36-1.31A16.8,16.8,0,0,1,252.23,199.74Z" style="fill:#263238"></path><path d="M251.26,205.24a7.24,7.24,0,0,1-1.5-2.63,9.44,9.44,0,0,0-3-4.33,3.13,3.13,0,0,0-3.55-.4c-1.85,1-3,3.77-2.81,6.61.27,3.56,8.16,9.85,11.47,12.34.32-.29.61-.6.91-.92-3.85-2.9-10.89-8.74-11.11-11.52-.17-2.32.75-4.63,2.15-5.38a1.87,1.87,0,0,1,2.16.28,8.21,8.21,0,0,1,2.55,3.8,8.63,8.63,0,0,0,1.78,3,57.76,57.76,0,0,0,5.84,4.58c.18-.4.36-.8.52-1.21A56.2,56.2,0,0,1,251.26,205.24Z" style="fill:#263238"></path><path d="M244.2,201.65c.28,4.41,7.26,10.79,9.73,12.91.26-.34.5-.69.74-1.05-3.15-2.72-9-8.43-9.19-11.94Z" style="fill:#263238"></path><path d="M245.94,214.23c-.95-1.1-1.69-2-3-2-2,0-5,3.31-6.41,5a12.52,12.52,0,0,0,1,.78c1.77-2.11,4.25-4.54,5.39-4.54.67,0,1.12.49,2,1.52a17.44,17.44,0,0,0,4.2,3.74,11,11,0,0,0,1.21-.75A16.18,16.18,0,0,1,245.94,214.23Z" style="fill:#263238"></path><path d="M247,219.76c-.92-1.38-2.45-3.44-3.53-3.71-1.31-.32-2.45,1.7-3.18,3.45a10.46,10.46,0,0,0,1.24.38c.6-1.37,1.31-2.52,1.63-2.58.45.11,1.51,1.35,2.49,2.76A10.51,10.51,0,0,0,247,219.76Z" style="fill:#263238"></path><line x1="265.91" y1="192.65" x2="293.06" y2="192.65" style="fill:none;stroke:#263238;stroke-miterlimit:10"></line><line x1="265.91" y1="198.16" x2="293.06" y2="198.16" style="fill:none;stroke:#263238;stroke-miterlimit:10"></line><line x1="265.91" y1="203.67" x2="293.06" y2="203.67" style="fill:none;stroke:#263238;stroke-miterlimit:10"></line><line x1="265.91" y1="209.18" x2="293.06" y2="209.18" style="fill:none;stroke:#263238;stroke-miterlimit:10"></line><rect x="206.29" y="305.18" width="27.16" height="27.16" rx="1.79" style="fill:#263238"></rect><path d="M231.32,332.94h-22.9a2.73,2.73,0,0,1-2.72-2.73v-22.9a2.72,2.72,0,0,1,2.72-2.72h22.9a2.72,2.72,0,0,1,2.72,2.72v22.9A2.73,2.73,0,0,1,231.32,332.94Zm-22.9-27.16a1.54,1.54,0,0,0-1.53,1.53v22.9a1.53,1.53,0,0,0,1.53,1.53h22.9a1.53,1.53,0,0,0,1.53-1.53v-22.9a1.54,1.54,0,0,0-1.53-1.53Z" style="fill:#263238"></path><rect x="212.15" y="311.04" width="15.44" height="15.44" style="fill:#263238"></rect><path d="M228.19,327.08H211.55V310.45h16.64Zm-15.45-1.19H227V311.64H212.74Z" style="fill:#fff"></path><rect x="210.49" y="294.28" width="1.19" height="8.33" style="fill:#263238"></rect><rect x="214.75" y="294.28" width="1.19" height="8.33" style="fill:#263238"></rect><rect x="219.01" y="294.28" width="1.19" height="8.33" style="fill:#263238"></rect><rect x="223.27" y="294.28" width="1.19" height="8.33" style="fill:#263238"></rect><rect x="227.53" y="294.28" width="1.19" height="8.33" style="fill:#263238"></rect><rect x="210.49" y="334.25" width="1.19" height="8.33" style="fill:#263238"></rect><rect x="214.75" y="334.25" width="1.19" height="8.33" style="fill:#263238"></rect><rect x="219.01" y="334.25" width="1.19" height="8.33" style="fill:#263238"></rect><rect x="223.27" y="334.25" width="1.19" height="8.33" style="fill:#263238"></rect><rect x="227.53" y="334.25" width="1.19" height="8.33" style="fill:#263238"></rect><rect x="235.42" y="309.32" width="8.33" height="1.19" style="fill:#263238"></rect><rect x="235.42" y="313.58" width="8.33" height="1.19" style="fill:#263238"></rect><rect x="235.42" y="317.84" width="8.33" height="1.19" style="fill:#263238"></rect><rect x="235.42" y="322.1" width="8.33" height="1.19" style="fill:#263238"></rect><rect x="235.42" y="326.36" width="8.33" height="1.19" style="fill:#263238"></rect><rect x="195.45" y="309.32" width="8.33" height="1.19" style="fill:#263238"></rect><rect x="195.45" y="313.58" width="8.33" height="1.19" style="fill:#263238"></rect><rect x="195.45" y="317.84" width="8.33" height="1.19" style="fill:#263238"></rect><rect x="195.45" y="322.1" width="8.33" height="1.19" style="fill:#263238"></rect><rect x="195.45" y="326.36" width="8.33" height="1.19" style="fill:#263238"></rect><line x1="251.36" y1="310.68" x2="278.5" y2="310.68" style="fill:none;stroke:#263238;stroke-miterlimit:10"></line><line x1="251.36" y1="316.18" x2="278.5" y2="316.18" style="fill:none;stroke:#263238;stroke-miterlimit:10"></line><line x1="251.36" y1="321.69" x2="278.5" y2="321.69" style="fill:none;stroke:#263238;stroke-miterlimit:10"></line><line x1="251.36" y1="327.2" x2="278.5" y2="327.2" style="fill:none;stroke:#263238;stroke-miterlimit:10"></line></g></svg>